<mxfile host="app.diagrams.net" etag="V7v_knYcWM_B6BlQ_dQ4" version="21.6.6" type="device">
  <diagram name="Page-1" id="jb7ZAXrOw7EJT6aN6Qqk">
    <mxGraphModel dx="953" dy="1775" grid="1" gridSize="10" guides="1" tooltips="1" connect="1" arrows="1" fold="1" page="1" pageScale="1" pageWidth="827" pageHeight="1169" math="0" shadow="0">
      <root>
        <mxCell id="0" />
        <mxCell id="1" parent="0" />
        <mxCell id="1DP_ufvNevRVq-RAnn8l-1" value="&lt;div&gt;Памятай!&lt;/div&gt;" style="swimlane;horizontal=0;whiteSpace=wrap;html=1;" vertex="1" parent="1">
          <mxGeometry x="0" y="10" width="827" height="220" as="geometry">
            <mxRectangle x="0" width="40" height="220" as="alternateBounds" />
          </mxGeometry>
        </mxCell>
        <mxCell id="1DP_ufvNevRVq-RAnn8l-2" value="&lt;h1 align=&quot;center&quot;&gt;&lt;font style=&quot;font-size: 18px;&quot;&gt;Гэта важна не забываць у час стварэння і аналізу дрэва/мадэлі&lt;/font&gt;&lt;br&gt;&lt;/h1&gt;&lt;p&gt;&lt;font style=&quot;font-size: 14px;&quot;&gt;&lt;span style=&quot;white-space: pre;&quot;&gt;&#x9;&lt;/span&gt;Ніхто з людзей не ведае, як на самой справе ўладкаваны свет/прырода. Але, калі прырода не супярэчлівая, то ёсць некаторы ўнутраны лад, які вызначае прычынна-выніковыя сувязі паміж прыроднымі з&#39;явамі. У тым ліку, у некаторых прычын могуць быць не дэтэрмінаваныя, а імавернасныя зыходы.&lt;/font&gt;&lt;/p&gt;&lt;p&gt;&lt;font style=&quot;font-size: 14px;&quot;&gt;&lt;span style=&quot;white-space: pre;&quot;&gt;&#x9;&lt;/span&gt;Мы можам спрабаваць здагадацца аб гэтых прычынна-выніковых сувязях, але, напэўна, ніколі не здолеем цалкам дакладна высветліць, ці правільная наша здагадка. Аднак, мы можам знайсці абвяржэнне для нашай здагадкі і такім чынам дакладна высветліць, што здагадка не правільная або недастаткова правільная.&lt;br&gt;&lt;/font&gt;&lt;/p&gt;&lt;p&gt;&lt;font style=&quot;font-size: 14px;&quot;&gt;&lt;span style=&quot;white-space: pre;&quot;&gt;&#x9;&lt;/span&gt;Таму ўвага да крытыкі вельмі важная. І важна заўважаць, калі назіранні за жыццём не зусім супадаюць з дрэвам (мадэллю). Заўважаныя адхіленні ад чаканняў кажуць аб тым, что недзе памылка — або ў мадэлі або ў назіраннях.&lt;br&gt;&lt;/font&gt;&lt;span lang=&quot;be&quot; class=&quot;HwtZe&quot;&gt;&lt;/span&gt;&lt;span lang=&quot;be&quot; class=&quot;HwtZe&quot;&gt;&lt;/span&gt;&lt;span lang=&quot;be&quot; class=&quot;HwtZe&quot;&gt;&lt;/span&gt;&lt;span lang=&quot;be&quot; class=&quot;HwtZe&quot;&gt;&lt;/span&gt;&lt;span lang=&quot;be&quot; class=&quot;HwtZe&quot;&gt;&lt;/span&gt;&lt;/p&gt;" style="text;html=1;strokeColor=none;fillColor=none;spacing=5;spacingTop=-20;whiteSpace=wrap;overflow=hidden;rounded=0;" vertex="1" parent="1DP_ufvNevRVq-RAnn8l-1">
          <mxGeometry x="26" width="790" height="220" as="geometry" />
        </mxCell>
      </root>
    </mxGraphModel>
  </diagram>
</mxfile>
